<svg width="12" height="12" viewBox="0 0 12 12" fill="none" xmlns="http://www.w3.org/2000/svg">
<path fill-rule="evenodd" clip-rule="evenodd" d="M3.49998 0.5H11C11.1326 0.5 11.2598 0.552678 11.3535 0.646447C11.4473 0.740215 11.5 0.867392 11.5 1V8.5C11.5 8.63261 11.4473 8.75978 11.3535 8.85355C11.2598 8.94732 11.1326 9 11 9C10.8674 9 10.7402 8.94732 10.6464 8.85355C10.5527 8.75978 10.5 8.63261 10.5 8.5V2.20667L1.35331 11.3533C1.25853 11.4417 1.13316 11.4897 1.00363 11.4874C0.874097 11.4852 0.750507 11.4327 0.658898 11.3411C0.567289 11.2495 0.514815 11.1259 0.512529 10.9963C0.510244 10.8668 0.558326 10.7414 0.646646 10.6467L9.79331 1.5H3.49998C3.36737 1.5 3.24019 1.44732 3.14643 1.35355C3.05266 1.25979 2.99998 1.13261 2.99998 1C2.99998 0.867392 3.05266 0.740215 3.14643 0.646447C3.24019 0.552678 3.36737 0.5 3.49998 0.5Z" fill="#0C5AB5"/>
</svg>
