<svg width="12" height="12" viewBox="0 0 12 12" fill="none" xmlns="http://www.w3.org/2000/svg">
<path fill-rule="evenodd" clip-rule="evenodd" d="M0.646715 0.646715C0.740465 0.553081 0.867548 0.500488 1.00005 0.500488C1.13255 0.500488 1.25963 0.553081 1.35338 0.646715L10.5 9.79338V3.50005C10.5 3.36744 10.5527 3.24026 10.6465 3.14649C10.7403 3.05273 10.8674 3.00005 11 3.00005C11.1327 3.00005 11.2598 3.05273 11.3536 3.14649C11.4474 3.24026 11.5 3.36744 11.5 3.50005V11C11.5 11.1327 11.4474 11.2598 11.3536 11.3536C11.2598 11.4474 11.1327 11.5 11 11.5H3.50005C3.36744 11.5 3.24026 11.4474 3.14649 11.3536C3.05273 11.2598 3.00005 11.1327 3.00005 11C3.00005 10.8674 3.05273 10.7403 3.14649 10.6465C3.24026 10.5527 3.36744 10.5 3.50005 10.5H9.79338L0.646715 1.35338C0.553081 1.25963 0.500488 1.13255 0.500488 1.00005C0.500488 0.867548 0.553081 0.740465 0.646715 0.646715Z" fill="#0C5AB5"/>
</svg>
