<svg width="16" height="16" viewBox="0 0 16 16" fill="none" xmlns="http://www.w3.org/2000/svg">
<path fill-rule="evenodd" clip-rule="evenodd" d="M2.64672 2.64672C2.74047 2.55308 2.86755 2.50049 3.00005 2.50049C3.13255 2.50049 3.25963 2.55308 3.35338 2.64672L12.5 11.7934V5.50005C12.5 5.36744 12.5527 5.24026 12.6465 5.14649C12.7403 5.05273 12.8674 5.00005 13 5.00005C13.1327 5.00005 13.2598 5.05273 13.3536 5.14649C13.4474 5.24026 13.5 5.36744 13.5 5.50005V13C13.5 13.1327 13.4474 13.2598 13.3536 13.3536C13.2598 13.4474 13.1327 13.5 13 13.5H5.50005C5.36744 13.5 5.24026 13.4474 5.14649 13.3536C5.05273 13.2598 5.00005 13.1327 5.00005 13C5.00005 12.8674 5.05273 12.7403 5.14649 12.6465C5.24026 12.5527 5.36744 12.5 5.50005 12.5H11.7934L2.64672 3.35338C2.55308 3.25963 2.50049 3.13255 2.50049 3.00005C2.50049 2.86755 2.55308 2.74047 2.64672 2.64672Z" fill="#0C5AB5"/>
</svg>
