<svg width="16" height="16" viewBox="0 0 16 16" fill="none" xmlns="http://www.w3.org/2000/svg">
<path fill-rule="evenodd" clip-rule="evenodd" d="M13.3533 13.3533C13.2595 13.4469 13.1325 13.4995 13 13.4995C12.8675 13.4995 12.7404 13.4469 12.6466 13.3533L3.49995 4.20662V10.5C3.49995 10.6326 3.44727 10.7597 3.35351 10.8535C3.25974 10.9473 3.13256 11 2.99995 11C2.86734 11 2.74017 10.9473 2.6464 10.8535C2.55263 10.7597 2.49995 10.6326 2.49995 10.5V2.99995C2.49995 2.86734 2.55263 2.74017 2.6464 2.6464C2.74017 2.55263 2.86734 2.49995 2.99995 2.49995H10.5C10.6326 2.49995 10.7597 2.55263 10.8535 2.6464C10.9473 2.74017 11 2.86734 11 2.99995C11 3.13256 10.9473 3.25974 10.8535 3.35351C10.7597 3.44727 10.6326 3.49995 10.5 3.49995H4.20662L13.3533 12.6466C13.4469 12.7404 13.4995 12.8675 13.4995 13C13.4995 13.1325 13.4469 13.2595 13.3533 13.3533Z" fill="#0C5AB5"/>
</svg>
