<svg width="18" height="17" viewBox="0 0 18 17" fill="none" xmlns="http://www.w3.org/2000/svg">
<path fill-rule="evenodd" clip-rule="evenodd" d="M5.24985 0.25H16.4998C16.6988 0.25 16.8895 0.329018 17.0302 0.46967C17.1708 0.610322 17.2498 0.801088 17.2498 1V12.25C17.2498 12.4489 17.1708 12.6397 17.0302 12.7803C16.8895 12.921 16.6988 13 16.4998 13C16.3009 13 16.1102 12.921 15.9695 12.7803C15.8289 12.6397 15.7498 12.4489 15.7498 12.25V2.81L2.02985 16.53C1.88767 16.6625 1.69963 16.7346 1.50532 16.7312C1.31102 16.7277 1.12564 16.649 0.988225 16.5116C0.850812 16.3742 0.7721 16.1888 0.768672 15.9945C0.765243 15.8002 0.837366 15.6122 0.969847 15.47L14.6898 1.75H5.24985C5.05093 1.75 4.86017 1.67098 4.71952 1.53033C4.57886 1.38968 4.49985 1.19891 4.49985 1C4.49985 0.801088 4.57886 0.610322 4.71952 0.46967C4.86017 0.329018 5.05093 0.25 5.24985 0.25Z" fill="white"/>
</svg>
