<svg width="24" height="24" viewBox="0 0 24 24" fill="none" xmlns="http://www.w3.org/2000/svg">
<path fill-rule="evenodd" clip-rule="evenodd" d="M11.4698 7.72007C11.6105 7.57962 11.8011 7.50073 11.9998 7.50073C12.1986 7.50073 12.3892 7.57962 12.5298 7.72007L20.0298 15.2201C20.1035 15.2887 20.1626 15.3715 20.2036 15.4635C20.2446 15.5555 20.2667 15.6548 20.2684 15.7556C20.2702 15.8563 20.2517 15.9563 20.214 16.0497C20.1762 16.1431 20.1201 16.2279 20.0489 16.2991C19.9777 16.3703 19.8928 16.4265 19.7994 16.4642C19.7061 16.5019 19.606 16.5204 19.5053 16.5187C19.4046 16.5169 19.3053 16.4948 19.2133 16.4539C19.1213 16.4129 19.0385 16.3538 18.9698 16.2801L11.9998 9.31007L5.02985 16.2801C4.88767 16.4126 4.69963 16.4847 4.50532 16.4812C4.31102 16.4778 4.12564 16.3991 3.98822 16.2617C3.85081 16.1243 3.7721 15.9389 3.76867 15.7446C3.76524 15.5503 3.83737 15.3622 3.96985 15.2201L11.4698 7.72007Z" fill="black"/>
</svg>
