<svg width="28" height="30" viewBox="0 0 28 30" fill="none" xmlns="http://www.w3.org/2000/svg">
<path d="M23.5625 0.375C22.01 0.375 20.75 1.635 20.75 3.1875V26.8125C20.75 28.365 22.01 29.625 23.5625 29.625H24.6875C26.24 29.625 27.5 28.365 27.5 26.8125V3.1875C27.5 1.6335 26.24 0.375 24.6875 0.375H23.5625ZM10.625 9.9375C10.625 8.3835 11.885 7.125 13.4375 7.125H14.5625C16.1165 7.125 17.375 8.385 17.375 9.9375V26.8125C17.375 28.365 16.115 29.625 14.5625 29.625H13.4375C12.6916 29.625 11.9762 29.3287 11.4488 28.8012C10.9213 28.2738 10.625 27.5584 10.625 26.8125V9.9375ZM0.5 16.6875C0.5 15.1335 1.76 13.875 3.3125 13.875H4.4375C5.9915 13.875 7.25 15.135 7.25 16.6875V26.8125C7.25 28.365 5.99 29.625 4.4375 29.625H3.3125C2.56658 29.625 1.85121 29.3287 1.32376 28.8012C0.796316 28.2738 0.5 27.5584 0.5 26.8125V16.6875Z" fill="#0C5AB5"/>
</svg>
