<svg width="36" height="36" viewBox="0 0 36 36" fill="none" xmlns="http://www.w3.org/2000/svg">
<path d="M17.55 4.20745C17.692 4.1455 17.8452 4.11353 18 4.11353C18.1549 4.11353 18.3081 4.1455 18.45 4.20745C23.9971 6.63205 29.2883 9.60428 34.245 13.0799C34.4197 13.2024 34.556 13.3721 34.6379 13.5691C34.7198 13.7661 34.744 13.9823 34.7077 14.1926C34.6713 14.4028 34.576 14.5984 34.4327 14.7565C34.2895 14.9146 34.1042 15.0287 33.8985 15.0854C28.7526 16.5067 23.7733 18.4739 19.0455 20.9534L19.041 20.9564L18.531 21.2264C18.3679 21.3136 18.1858 21.3592 18.0008 21.3592C17.8158 21.3592 17.6337 21.3136 17.4705 21.2264C15.4436 20.1432 13.3679 19.1536 11.25 18.2609V17.9249C11.25 17.7284 11.3505 17.5529 11.508 17.4584C13.7721 16.0864 16.1013 14.8249 18.4875 13.6784C18.7565 13.5492 18.963 13.3183 19.0618 13.0367C19.1605 12.7552 19.1433 12.4459 19.014 12.1769C18.8847 11.908 18.6539 11.7015 18.3723 11.6027C18.0907 11.504 17.7815 11.5212 17.5125 11.6504C15.0612 12.8284 12.6684 14.1244 10.3425 15.5339C10.0116 15.7347 9.72617 16.0021 9.50433 16.3193C9.28249 16.6364 9.12913 16.9963 9.05403 17.3759C6.77584 16.4993 4.45606 15.7349 2.10303 15.0854C1.89737 15.0287 1.71211 14.9146 1.56884 14.7565C1.42557 14.5984 1.33021 14.4028 1.29389 14.1926C1.25757 13.9823 1.28177 13.7661 1.36369 13.5691C1.44561 13.3721 1.58185 13.2024 1.75653 13.0799C6.71275 9.60439 12.0035 6.63216 17.55 4.20745Z" fill="#0C5AB5"/>
<path d="M19.59 23.2094C23.2744 21.241 27.1217 19.5939 31.089 18.2864C31.29 20.4074 31.419 22.5509 31.4715 24.7139C31.477 24.9402 31.4141 25.163 31.291 25.353C31.1679 25.543 30.9903 25.6914 30.7815 25.7789C26.5295 27.5549 22.4582 29.7359 18.624 32.2919C18.4392 32.4151 18.2221 32.4808 18 32.4808C17.7779 32.4808 17.5608 32.4151 17.376 32.2919C13.5423 29.736 9.47157 27.5549 5.22002 25.7789C5.01092 25.6917 4.83303 25.5433 4.70965 25.3533C4.58626 25.1633 4.52313 24.9404 4.52852 24.7139C4.58102 22.5509 4.71002 20.4089 4.91102 18.2849C6.28854 18.739 7.65216 19.2342 9.00002 19.7699V21.6749C8.67592 21.8616 8.40349 22.1262 8.20736 22.4447C8.01124 22.7632 7.89762 23.1256 7.87677 23.4991C7.85592 23.8725 7.92851 24.2453 8.08797 24.5837C8.24742 24.922 8.48871 25.2153 8.79002 25.4369C8.65502 26.0069 8.45702 26.5664 8.19452 27.1019C8.87252 27.4214 9.54602 27.7529 10.2135 28.0934C10.5899 27.3276 10.8676 26.5171 11.04 25.6814C11.4193 25.5128 11.7446 25.2424 11.9798 24.9004C12.2151 24.5583 12.3511 24.1579 12.3728 23.7433C12.3945 23.3287 12.3012 22.9162 12.103 22.5514C11.9048 22.1867 11.6096 21.8838 11.25 21.6764V20.7089C13.0022 21.4748 14.7235 22.3095 16.41 23.2109C16.8993 23.4722 17.4454 23.6089 18 23.6089C18.5547 23.6089 19.1008 23.4722 19.59 23.2109V23.2094Z" fill="#0C5AB5"/>
<path d="M6.69299 29.193C7.32299 28.5645 7.82249 27.8581 8.19299 27.1021C8.87249 27.4216 9.54599 27.753 10.2135 28.0935C9.72267 29.0904 9.07094 29.9996 8.28449 30.7846C8.18149 30.8951 8.05729 30.9837 7.9193 31.0452C7.7813 31.1067 7.63233 31.1398 7.48127 31.1424C7.33022 31.1451 7.18017 31.1173 7.04009 31.0607C6.90001 31.0042 6.77276 30.9199 6.66593 30.8131C6.5591 30.7063 6.47489 30.579 6.4183 30.4389C6.36172 30.2989 6.33394 30.1488 6.3366 29.9978C6.33927 29.8467 6.37233 29.6977 6.43382 29.5597C6.4953 29.4217 6.58396 29.2975 6.69449 29.1945L6.69299 29.193Z" fill="#0C5AB5"/>
</svg>
