<svg width="36" height="36" viewBox="0 0 36 36" fill="none" xmlns="http://www.w3.org/2000/svg">
<path fill-rule="evenodd" clip-rule="evenodd" d="M4.5 3.375C4.79837 3.375 5.08452 3.49353 5.2955 3.7045C5.50647 3.91548 5.625 4.20163 5.625 4.5V5.31L8.382 4.62C11.7688 3.77319 15.3469 4.16584 18.4695 5.727L18.6315 5.808C21.2212 7.10316 24.183 7.44924 27.0015 6.786L31.665 5.688C31.84 5.64696 32.0222 5.64844 32.1965 5.6923C32.3708 5.73617 32.532 5.82114 32.6667 5.94011C32.8014 6.05908 32.9056 6.20859 32.9706 6.37612C33.0357 6.54364 33.0596 6.72431 33.0405 6.903C32.4823 12.0566 32.4848 17.2555 33.048 22.4085C33.078 22.6816 33.007 22.9563 32.8484 23.1807C32.6898 23.4051 32.4545 23.5637 32.187 23.6265L27.516 24.726C24.1854 25.5099 20.6854 25.1012 17.625 23.571L17.463 23.49C14.8211 22.1689 11.7937 21.8364 8.928 22.5525L5.625 23.3775V31.5C5.625 31.7984 5.50647 32.0845 5.2955 32.2955C5.08452 32.5065 4.79837 32.625 4.5 32.625C4.20163 32.625 3.91548 32.5065 3.7045 32.2955C3.49353 32.0845 3.375 31.7984 3.375 31.5V4.5C3.375 4.35226 3.4041 4.20597 3.46064 4.06948C3.51717 3.93299 3.60004 3.80897 3.7045 3.7045C3.80897 3.60004 3.93299 3.51717 4.06948 3.46064C4.20597 3.4041 4.35226 3.375 4.5 3.375Z" fill="#0C5AB5"/>
</svg>
