<svg width="36" height="36" viewBox="0 0 36 36" fill="none" xmlns="http://www.w3.org/2000/svg">
<path fill-rule="evenodd" clip-rule="evenodd" d="M12.375 10.125C12.375 8.63316 12.9676 7.20242 14.0225 6.14752C15.0774 5.09263 16.5082 4.5 18 4.5C19.4918 4.5 20.9226 5.09263 21.9775 6.14752C23.0324 7.20242 23.625 8.63316 23.625 10.125C23.625 11.6168 23.0324 13.0476 21.9775 14.1025C20.9226 15.1574 19.4918 15.75 18 15.75C16.5082 15.75 15.0774 15.1574 14.0225 14.1025C12.9676 13.0476 12.375 11.6168 12.375 10.125ZM23.625 14.625C23.625 13.4315 24.0991 12.2869 24.943 11.443C25.7869 10.5991 26.9315 10.125 28.125 10.125C29.3185 10.125 30.4631 10.5991 31.307 11.443C32.1509 12.2869 32.625 13.4315 32.625 14.625C32.625 15.8185 32.1509 16.9631 31.307 17.807C30.4631 18.6509 29.3185 19.125 28.125 19.125C26.9315 19.125 25.7869 18.6509 24.943 17.807C24.0991 16.9631 23.625 15.8185 23.625 14.625ZM3.375 14.625C3.375 13.4315 3.84911 12.2869 4.69302 11.443C5.53693 10.5991 6.68153 10.125 7.875 10.125C9.06847 10.125 10.2131 10.5991 11.057 11.443C11.9009 12.2869 12.375 13.4315 12.375 14.625C12.375 15.8185 11.9009 16.9631 11.057 17.807C10.2131 18.6509 9.06847 19.125 7.875 19.125C6.68153 19.125 5.53693 18.6509 4.69302 17.807C3.84911 16.9631 3.375 15.8185 3.375 14.625ZM9.465 22.6755C10.3799 21.2415 11.6416 20.0614 13.1334 19.2442C14.6252 18.4269 16.299 17.999 18 18C19.4247 17.9987 20.8337 18.2983 22.1346 18.8792C23.4355 19.4602 24.5991 20.3093 25.5491 21.3711C26.4991 22.4328 27.2142 23.6832 27.6475 25.0405C28.0808 26.3977 28.2226 27.8312 28.0635 29.247C28.0441 29.4229 27.9834 29.5917 27.8864 29.7398C27.7895 29.8878 27.659 30.0109 27.5055 30.099C24.6128 31.7588 21.335 32.6298 18 32.625C14.5425 32.625 11.295 31.707 8.4945 30.099C8.34103 30.0109 8.21052 29.8878 8.11356 29.7398C8.01661 29.5917 7.95594 29.4229 7.9365 29.247C7.68458 26.9469 8.22369 24.6297 9.465 22.677V22.6755Z" fill="#0C5AB5"/>
<path d="M7.623 21.3809C6.14363 23.6644 5.45438 26.3703 5.661 29.0834C4.76026 28.9468 3.87436 28.7258 3.015 28.4234L2.8425 28.3634C2.68859 28.3087 2.55383 28.2107 2.45452 28.081C2.35522 27.9513 2.29564 27.7957 2.283 27.6329L2.268 27.4514C2.20741 26.6983 2.29913 25.9408 2.53771 25.2239C2.77628 24.5071 3.15681 23.8457 3.65658 23.2791C4.15636 22.7126 4.76515 22.2525 5.44662 21.9263C6.12808 21.6002 6.86827 21.4147 7.623 21.3809ZM30.339 29.0834C30.5456 26.3703 29.8564 23.6644 28.377 21.3809C29.1317 21.4147 29.8719 21.6002 30.5534 21.9263C31.2348 22.2525 31.8436 22.7126 32.3434 23.2791C32.8432 23.8457 33.2237 24.5071 33.4623 25.2239C33.7009 25.9408 33.7926 26.6983 33.732 27.4514L33.717 27.6329C33.7041 27.7954 33.6444 27.9508 33.5451 28.0801C33.4458 28.2095 33.3112 28.3073 33.1575 28.3619L32.985 28.4219C32.1345 28.7219 31.251 28.9454 30.339 29.0834Z" fill="#0C5AB5"/>
</svg>
