<svg width="36" height="36" viewBox="0 0 36 36" fill="none" xmlns="http://www.w3.org/2000/svg">
<path d="M17.2051 5.76017C17.4161 5.54949 17.702 5.43116 18.0001 5.43116C18.2982 5.43116 18.5842 5.54949 18.7951 5.76017L31.8301 18.7952C31.9331 18.9057 32.0573 18.9944 32.1953 19.0558C32.3333 19.1173 32.4823 19.1504 32.6333 19.1531C32.7844 19.1557 32.9344 19.1279 33.0745 19.0714C33.2146 19.0148 33.3419 18.9306 33.4487 18.8237C33.5555 18.7169 33.6397 18.5896 33.6963 18.4496C33.7529 18.3095 33.7807 18.1594 33.778 18.0084C33.7753 17.8573 33.7423 17.7084 33.6808 17.5704C33.6193 17.4324 33.5307 17.3082 33.4201 17.2052L20.3866 4.17017C20.0732 3.85677 19.7012 3.60816 19.2917 3.43855C18.8822 3.26894 18.4433 3.18164 18.0001 3.18164C17.5569 3.18164 17.118 3.26894 16.7086 3.43855C16.2991 3.60816 15.927 3.85677 15.6136 4.17017L2.57862 17.2052C2.37379 17.4174 2.26053 17.7017 2.26323 17.9966C2.26593 18.2916 2.38438 18.5737 2.59306 18.7822C2.80175 18.9907 3.08397 19.1089 3.37894 19.1113C3.67392 19.1137 3.95804 19.0002 4.17012 18.7952L17.2051 5.76017Z" fill="#0C5AB5"/>
<path d="M18 8.14802L30.2385 20.3865C30.2835 20.4315 30.3285 20.4735 30.375 20.5155V29.8125C30.375 31.365 29.115 32.625 27.5625 32.625H22.5C22.2016 32.625 21.9155 32.5065 21.7045 32.2955C21.4935 32.0845 21.375 31.7984 21.375 31.5V24.75C21.375 24.4517 21.2565 24.1655 21.0455 23.9545C20.8345 23.7435 20.5484 23.625 20.25 23.625H15.75C15.4516 23.625 15.1655 23.7435 14.9545 23.9545C14.7435 24.1655 14.625 24.4517 14.625 24.75V31.5C14.625 31.7984 14.5065 32.0845 14.2955 32.2955C14.0845 32.5065 13.7984 32.625 13.5 32.625H8.4375C7.69158 32.625 6.97621 32.3287 6.44876 31.8013C5.92132 31.2738 5.625 30.5584 5.625 29.8125V20.5155C5.67167 20.4738 5.71718 20.4308 5.7615 20.3865L18 8.14502V8.14802Z" fill="#0C5AB5"/>
</svg>
