<svg width="36" height="36" viewBox="0 0 36 36" fill="none" xmlns="http://www.w3.org/2000/svg">
<path fill-rule="evenodd" clip-rule="evenodd" d="M15.75 5.69701V13.227C15.7497 14.4204 15.2754 15.5648 14.4315 16.4085L10.866 19.974C13.5016 19.7882 16.1387 20.313 18.5025 21.4935C21.1547 22.8202 24.1929 23.1584 27.072 22.4475L27.4995 22.341L21.5685 16.4085C20.7245 15.5648 20.2502 14.4204 20.25 13.227V5.69701C18.7515 5.60163 17.2484 5.60163 15.75 5.69701ZM22.5 5.90401C22.788 5.90663 23.0661 5.79866 23.2769 5.60236C23.4876 5.40607 23.6151 5.13639 23.633 4.84891C23.6509 4.56142 23.5578 4.27802 23.373 4.05712C23.1881 3.83621 22.9256 3.69461 22.6395 3.66151C21.1004 3.46953 19.5509 3.37385 18 3.37501C16.449 3.37466 14.8996 3.47035 13.3605 3.66151C13.0743 3.69461 12.8118 3.83621 12.627 4.05712C12.4421 4.27802 12.349 4.56142 12.3669 4.84891C12.3848 5.13639 12.5123 5.40607 12.7231 5.60236C12.9339 5.79866 13.2119 5.90663 13.5 5.90401V13.227C13.4994 13.8235 13.262 14.3955 12.84 14.817L3.40046 24.258C0.970465 26.6895 2.04596 30.9705 5.60696 31.578C9.63596 32.268 13.7775 32.625 18 32.625C22.224 32.625 26.364 32.2665 30.393 31.5795C33.9525 30.9705 35.031 26.6895 32.598 24.258L23.16 14.8185C22.9508 14.6096 22.7848 14.3615 22.6716 14.0884C22.5583 13.8154 22.5 13.5226 22.5 13.227V5.90401Z" fill="#0C5AB5"/>
</svg>
